<svg viewBox="0 0 64 64" xmlns="http://www.w3.org/2000/svg">
  <circle cx="32" cy="32" r="32" fill="#ec4899"/>
  <path d="M32 11c-4.5 0-8 1.2-10.2 3.5C19.5 17 19 20 19 23c0 3.2 1 6.5 2.2 10 1 3 1.8 5.8 2.5 8.2.6 2 1 3.5 1.6 4.5.5.8 1 1.3 1.7 1.3.8 0 1.3-.6 1.8-2 .4-1 .7-2.3 1-3.5.2-.7.2-1 .2-1s0 .3.2 1c.3 1.2.6 2.5 1 3.5.5 1.4 1 2 1.8 2 .7 0 1.2-.5 1.7-1.3.6-1 1-2.5 1.6-4.5.7-2.4 1.5-5.2 2.5-8.2C40 29.5 41 26.2 41 23c0-3-.5-6-2.8-8.5C36 12.2 36.5 11 32 11z"
        fill="white"/>
  <ellipse cx="27.5" cy="21" rx="2.8" ry="1.5" fill="white" opacity="0.5"/>
  <circle cx="28" cy="26.5" r="1.2" fill="#ec4899" opacity="0.12"/>
  <circle cx="35.5" cy="25.5" r="1.2" fill="#ec4899" opacity="0.12"/>
</svg>
